<svg id="svg" xmlns="http://www.w3.org/2000/svg" xmlns:xlink="http://www.w3.org/1999/xlink" width="400" height="302.0408163265306" viewBox="0, 0, 400,302.0408163265306"><g id="svgg"><path id="path0" d="M43.673 3.266 C 26.136 5.204,10.495 17.950,4.682 35.043 L 2.857 40.408 2.632 114.490 L 2.407 188.571 83.653 188.571 L 164.898 188.571 164.898 165.714 L 164.898 142.857 175.510 142.857 L 186.122 142.857 186.122 79.592 L 186.122 16.327 199.184 16.327 L 212.245 16.327 212.245 79.592 L 212.245 142.857 222.857 142.857 L 233.469 142.857 233.469 165.714 L 233.469 188.571 314.715 188.571 L 395.960 188.571 395.735 114.490 L 395.510 40.408 393.686 35.043 C 388.796 20.667,377.170 9.544,361.633 4.379 C 357.013 2.843,57.010 1.793,43.673 3.266 M176.327 179.592 L 176.327 194.286 88.923 194.286 L 1.519 194.286 1.796 227.551 C 2.067 259.903,2.126 260.962,3.966 266.122 C 9.310 281.112,20.879 292.089,36.369 296.869 C 43.929 299.202,354.439 299.202,361.998 296.869 C 378.026 291.923,389.471 280.612,394.758 264.490 C 396.055 260.538,396.268 256.064,396.540 227.143 L 396.850 194.286 309.445 194.286 L 222.041 194.286 222.041 179.592 L 222.041 164.898 199.184 164.898 L 176.327 164.898 176.327 179.592 " stroke="none" fill="#000000" fill-rule="evenodd"></path></g></svg>